<svg id="Layer_1" data-name="Layer 1" xmlns="http://www.w3.org/2000/svg" xmlns:xlink="http://www.w3.org/1999/xlink"
    viewBox="0 0 1080 1080">
    <defs>
        <style>
            .cls-1 {
                fill: none;
                stroke-width: 18.01px;
                stroke: url(#linear-gradient);
            }

            .cls-1,
            .cls-5 {
                stroke-miterlimit: 10;
            }

            .cls-2,
            .cls-4 {
                fill: #010101;
            }

            .cls-2 {
                fill-rule: evenodd;
            }

            .cls-3 {
                fill: #3ac2e3;
            }

            .cls-5 {
                fill: #fff;
                stroke: #231f20;
                stroke-width: 4.2px;
            }
        </style>
        <linearGradient id="linear-gradient" x1="135.34" y1="540.3" x2="945.63" y2="540.3"
            gradientUnits="userSpaceOnUse">
            <stop offset="0" stop-color="#41bbec" />
            <stop offset="0" stop-color="#3ac2e3" />
            <stop offset="0.99" stop-color="#010101" />
        </linearGradient>
    </defs>
    <title>lecchaincolorutec</title>
    <circle class="cls-1" cx="540.48" cy="540.3" r="396.14" />
    <path class="cls-2"
        d="M851,501.24v77a17.3,17.3,0,0,1-12.26,16.13l-75.35,13.36c-3.78,15.2-10.42,30.41-17,44.69l42.42,62.74c3.7,5.72,2.77,15.29-1.93,20l-53.68,53.25c-4.79,5.71-14.19,6.72-19.82,2.86l-62.25-42.76a285.39,285.39,0,0,1-42.33,17.14l-14.2,76c-.92,6.72-8.48,12.43-15,12.43H540.48V738.62c109.54,0,198.41-88.87,198.41-198.41S650,341.89,540.48,341.89V226.39h39.15c6.55,0,14.11,5.71,15,12.35l14.2,76.1c15,4.7,29.23,11.42,43.34,18.06l62.16-42.76c5.71-3.86,15.12-2.85,19.83,1.85l53.67,54.27c4.71,4.7,5.71,13.27,1.93,19l-43.34,64.68c6.55,12.43,13.19,27.64,17,42.76L838.77,486C845.4,487.88,851,495.44,851,501.24Z" />
    <path class="cls-3"
        d="M540.48,226.39V854.2h-.08c-.93,0-1.85,0-2.69-.08-25.87-.59-46.87-9.83-51.32-22a14.29,14.29,0,0,1-.84-4.62v-.08c0-12.43,17.72-22.77,41.74-25.62l-8.9-63.17A198.19,198.19,0,0,1,450,717.7l-19.82,28.73a56.89,56.89,0,0,1,5.29,4.45c8.32,7.82,12.18,16.47,8.91,21.93-4.54,7.73-21.26,6.63-37.3-2.69-1.43-.84-2.86-1.68-4.2-2.6-13.36-9-20.75-21.09-16.63-28.23,3.86-6.63,16.38-6.72,29.9-1l15-31.5a202.17,202.17,0,0,1-51.41-48.3l-59.3,23.94c9.57,22.1,9.32,42.76-1.43,48.89-7.48,4.29-18.4.76-29.15-8.15-7.56-6.21-15.12-15.12-21.42-25.87-15.12-26.21-17-53.51-4.37-61,10.92-6.13,28.73,4,43.18,23.18l22.26-17.3,28.14-21.93A200.16,200.16,0,0,1,341.32,551l-34.69-2.77c-1.68,14.62-8.15,25.45-15.71,25.45-9-.08-16.38-15.12-16.3-33.6-.08-18.39,7.23-33.51,16.21-33.51,7.73.08,14,10.83,15.88,25.45l34.61-2.69a201.79,201.79,0,0,1,16.38-69.13l-28-21.76L307.3,420.93C292.85,440.17,275,450.25,264.12,444c-12.6-7.39-10.75-34.69,4.37-60.65A96.94,96.94,0,0,1,289.07,358c11.09-9.5,22.26-13.36,30-9,10.75,6.21,11,26.88,1.43,49l59.3,23.94a200.21,200.21,0,0,1,51.74-48.47l-14.95-31.41c-13.52,5.79-26.21,5.71-30-.84-3.86-6.89,2.86-18.4,15.38-27.3a54,54,0,0,1,5.62-3.7c16-9.24,32.6-10.5,37.22-2.69,3.27,5.8-.93,14.7-9.83,22.77a47.43,47.43,0,0,1-4.37,3.69l19.66,28.56a199.21,199.21,0,0,1,68.12-20.75l8.9-63.16c-23.94-2.86-41.66-13.11-41.74-25.54V253a13.94,13.94,0,0,1,.92-4.88c4.7-12.51,27-21.75,53.93-21.75Z" />
    <path class="cls-4"
        d="M620.28,544.59v18c0,13.77-.09,27.46-.17,41.24-.09,10.42-.34,20.92-.34,31.33.09,10.67.25,21.42-.84,32a78,78,0,0,1-2.77,16c-1.18,3.69-2.86,7.39-6.13,9.74-3.11,2.18-7,3.36-10.59,4.37a114.93,114.93,0,0,1-15,2.6,271.48,271.48,0,0,1-33,1.6c-2.52,0-5.13-.09-7.65-.17-1.09.08-2.18.17-3.27.17V696c1-.09,1.93-.09,2.94-.17h.5c2.52.08,5,.08,7.56.17a268,268,0,0,0,32.26-1.6A101.65,101.65,0,0,0,598,691.93c3.1-.84,6.38-1.85,8.73-3.53a7.28,7.28,0,0,0,2-2.19,17.65,17.65,0,0,0,2-4.7,71.22,71.22,0,0,0,2.61-14.87c1-10.16.92-20.75.84-30.91v-.5c-.09-6.72.08-13.61.17-20.16,0-3.78.08-7.56.08-11.34.17-13.7.17-27.39.25-41.16,0-6,0-11.93-.08-18v-3c.08-4,.08-7.9-.17-11.76A90.11,90.11,0,0,0,610.36,507c-2.35-7.48-6.46-14.37-10.75-21.51l-.42-.75c-1-1.68-1.93-3.28-2.94-4.87-1.34-2.1-2.6-4.2-3.86-6.3a24.33,24.33,0,0,1-3.45-10.34c-.58-5.88-.58-11.76-.67-17.38a11.71,11.71,0,0,1,.09-1.26c1.84.08,3.69.08,5.54.08v.42a176.21,176.21,0,0,0,.59,17.64,20,20,0,0,0,2.77,8.06c2.18,3.78,4.54,7.4,6.72,11.18,4.45,7.47,9.07,15,11.68,23.35A95.08,95.08,0,0,1,620,529.47C620.36,534.51,620.28,539.55,620.28,544.59Z" />
    <path class="cls-4"
        d="M540.48,696v5.46c-6.3.33-12.77.25-19.07,0a209.51,209.51,0,0,1-33.18-2.94A59.81,59.81,0,0,1,475.12,695c-3.27-1.34-6.21-3.11-8.14-6.22-2.52-3.94-3.62-8.82-4.37-13.35a133,133,0,0,1-1.68-17.47c-.42-9.41-.09-18.82-.17-28.23-.08-12.09-.08-24.27-.08-36.37,0-13.52,0-27,.16-40.49.09-11.93-.25-23.94,1.94-35.7a78.45,78.45,0,0,1,7.72-23.18c4.2-8,9.24-15.54,13.95-23.27a20.42,20.42,0,0,0,2.85-8.23c.34-2.77.42-5.55.51-8.32q.26-4.9.25-9.83c.08-2,.08-3.94.08-6a1.18,1.18,0,0,1,1.26-1.18h.17a33.87,33.87,0,0,1,4,0H494c-.08,1.94-.16,4.54-.25,7.14-.17,4-.25,8.07-.33,10-.17,2.77-.26,5.71-.59,8.74a24.66,24.66,0,0,1-3.61,10.41c-1.6,2.61-3.2,5.13-4.79,7.73-3.11,5-6.3,10.08-9,15.29a74.65,74.65,0,0,0-7.22,21.67c-1.77,9.58-1.77,19.66-1.85,29.48v5.3c-.09,13.44-.17,26.88-.17,40.4,0,12.1.08,24.19.17,36.37,0,3.45,0,6.89-.09,10.42,0,5.79-.08,11.76.17,17.64a122.36,122.36,0,0,0,1.6,16.71c.67,4,1.59,8.24,3.61,11.43,1,1.59,2.77,2.85,5.63,4a55.91,55.91,0,0,0,11.93,3.19c11.59,2.1,23.35,2.61,32.34,2.86C528.55,696.21,534.6,696.21,540.48,696Z" />
    <path class="cls-4"
        d="M523.84,398.6c-8.14,0-16.21,0-24.27.08-6.81.09-15.63-1.17-22.09,1.26a15.49,15.49,0,0,0-7.14,6.39c-2.36,4-2.1,8.9-1.94,13.44a86.43,86.43,0,0,0,1.35,14.78,13.63,13.63,0,0,0,2.77,6.72,8.73,8.73,0,0,0,1.6,1.51c2.6,1.77,5.79,1.51,8.82,1.51h24.27l26.71-.25c2.19-.08,4.37-.08,6.56-.08V398.6Z" />
    <path class="cls-4"
        d="M611,439.42a10.64,10.64,0,0,1-2.1,2.86,9.49,9.49,0,0,1-5.63,2.35c-2,.17-4.11,0-6.13,0H593.9c-1.85,0-3.7,0-5.54-.08a23.22,23.22,0,0,1-2.36,0c-10.75,0-21.58-.34-32.34-.51-4.36-.08-8.73-.08-13.18-.08V398.6c10.16-.09,20.24,0,30.4,0,11.09,0,23.78-2.52,34.28,2.43a14.19,14.19,0,0,1,8.4,11.68,8.58,8.58,0,0,1,.16,1.43C614.4,422.37,614.56,431.78,611,439.42Z" />
    <path class="cls-5"
        d="M488,659.49a37.24,37.24,0,0,0,5.45,1.18c1.61.27,3.21.45,4.83.6,6.06.54,12.15.47,18.24.49l31.75.12c1.26,0,2.55,0,3.83,0,2.59,0,5.2,0,7.8,0,5.11,0,10.22.08,15.34,0a104.82,104.82,0,0,0,10.46-.73,31.68,31.68,0,0,0,8.56-2c8-3.44,9.38-12.33,9.67-19.92,1-26.46,2.39-53,2.38-79.44,0-8.36,0-16.76-.81-25.08a38.06,38.06,0,0,0-1.88-9.85c-2.25-5.87-10.12-6-15.45-6.88-.26,0-.54-.09-.81-.11a73.2,73.2,0,0,0-8.5-.67c-4.74-.24-9.51-.42-14.27-.54-7.26-.18-14.56-.34-21.84-.19-3.72-.05-7.46-.08-11.18-.07-14.95.1-30.67-.7-45.34,2.42a13.9,13.9,0,0,0-5.92,2.33c-2.22,1.78-3.29,4.6-3.75,7.34-2.8,16.35-1.67,33.44-1.51,49.92q.18,17,.71,34c.3,9.94-1.2,21.93,1.25,31.61.7,4.38,2.07,9,5.36,12.19A13.92,13.92,0,0,0,488,659.49Z" />
    <path class="cls-3"
        d="M489.19,547.07l-.39,15.87a5.57,5.57,0,0,0,5.56,5.66l92.22,1a5.58,5.58,0,0,0,5.69-5.51l.05-16.64a5.57,5.57,0,0,0-5.61-5.54l-91.88-.27A5.59,5.59,0,0,0,489.19,547.07Z" />
    <path class="cls-4"
        d="M509.44,590.84h0a2.7,2.7,0,0,0,2.7,2.87l56.65.32a2.71,2.71,0,0,0,2.74-2.68v-.16a2.7,2.7,0,0,0-2.72-2.69l-56.64-.16A2.71,2.71,0,0,0,509.44,590.84Z" />
    <path class="cls-4"
        d="M509.38,608h0a2.71,2.71,0,0,0,2.71,2.87l56.65.32a2.7,2.7,0,0,0,2.74-2.68v-.15a2.71,2.71,0,0,0-2.72-2.7l-56.64-.16A2.72,2.72,0,0,0,509.38,608Z" />
    <path class="cls-4"
        d="M509.33,625.17h0A2.71,2.71,0,0,0,512,628l56.64.32a2.7,2.7,0,0,0,2.75-2.68v-.15a2.7,2.7,0,0,0-2.72-2.69l-56.65-.17A2.71,2.71,0,0,0,509.33,625.17Z" />
</svg>